REM DIRINDEX 1\2\6,1\2\7,1\2\8,1\2\9,1\3\10,1\3\11,1\4\12,1\4\13,1\4\14,1\5\15,1\5\16,1\5\17
REM DIRNAME folder01,folder02,folder03,folder04,folder05,folder06,folder07,folder08,folder09,folder10,folder11,folder12,folder13,folder14,folder15,folder16,folder17
TITLE ""
FILE "1400_3_sec11_1050_1065.mp3" MP3
  TRACK 01 AUDIO
    TITLE "0:"
    INDEX 01 00:00:00
  TRACK 02 AUDIO
    TITLE "17:cjc029_6537"
    INDEX 01 00:00:15
  TRACK 03 AUDIO
    TITLE "0:"
    INDEX 01 00:01:38
  TRACK 04 AUDIO
    TITLE "16:cjc029_6538"
    INDEX 01 00:01:42
  TRACK 05 AUDIO
    TITLE "0:"
    INDEX 01 00:02:51
  TRACK 06 AUDIO
    TITLE "17:cjc029_6539"
    INDEX 01 00:03:35
  TRACK 07 AUDIO
    TITLE "0:"
    INDEX 01 00:04:42
  TRACK 08 AUDIO
    TITLE "16:cjc029_6540"
    INDEX 01 00:04:46
  TRACK 09 AUDIO
    TITLE "0:"
    INDEX 01 00:05:65
  TRACK 10 AUDIO
    TITLE "17:cjc029_6541"
    INDEX 01 00:06:49
  TRACK 11 AUDIO
    TITLE "0:"
    INDEX 01 00:07:66
  TRACK 12 AUDIO
    TITLE "16:cjc029_6542"
    INDEX 01 00:07:70
  TRACK 13 AUDIO
    TITLE "0:"
    INDEX 01 00:09:10
  TRACK 14 AUDIO
    TITLE "17:cjc029_6543"
    INDEX 01 00:09:69
  TRACK 15 AUDIO
    TITLE "0:"
    INDEX 01 00:10:74
  TRACK 16 AUDIO
    TITLE "16:cjc029_6544"
    INDEX 01 00:11:05
  TRACK 17 AUDIO
    TITLE "0:"
    INDEX 01 00:12:16
  TRACK 18 AUDIO
    TITLE "17:cjc029_6545"
    INDEX 01 00:13:02
  TRACK 19 AUDIO
    TITLE "0:"
    INDEX 01 00:14:37
  TRACK 20 AUDIO
    TITLE "16:cjc029_6546"
    INDEX 01 00:14:47
  TRACK 21 AUDIO
    TITLE "0:"
    INDEX 01 00:15:48
  TRACK 22 AUDIO
    TITLE "17:cjc029_6547"
    INDEX 01 00:16:34
  TRACK 23 AUDIO
    TITLE "0:"
    INDEX 01 00:21:47
  TRACK 24 AUDIO
    TITLE "16:cjc029_6548"
    INDEX 01 00:21:55
  TRACK 25 AUDIO
    TITLE "0:"
    INDEX 01 00:22:72
  TRACK 26 AUDIO
    TITLE "17:cjc029_6549"
    INDEX 01 00:23:57
  TRACK 27 AUDIO
    TITLE "0:"
    INDEX 01 00:25:33
  TRACK 28 AUDIO
    TITLE "16:cjc029_6550"
    INDEX 01 00:25:41
  TRACK 29 AUDIO
    TITLE "0:"
    INDEX 01 00:26:62
  TRACK 30 AUDIO
    TITLE "17:cjc029_6551"
    INDEX 01 00:27:47
  TRACK 31 AUDIO
    TITLE "0:"
    INDEX 01 00:28:66
  TRACK 32 AUDIO
    TITLE "16:cjc029_6552"
    INDEX 01 00:28:74
  TRACK 33 AUDIO
    TITLE "0:"
    INDEX 01 00:30:24
  TRACK 34 AUDIO
    TITLE "17:cjc029_6553"
    INDEX 01 00:31:08
  TRACK 35 AUDIO
    TITLE "0:"
    INDEX 01 00:32:27
  TRACK 36 AUDIO
    TITLE "16:cjc029_6554"
    INDEX 01 00:32:35
  TRACK 37 AUDIO
    TITLE "0:"
    INDEX 01 00:33:48
  TRACK 38 AUDIO
    TITLE "17:cjc029_6555"
    INDEX 01 00:34:32
  TRACK 39 AUDIO
    TITLE "0:"
    INDEX 01 00:35:43
  TRACK 40 AUDIO
    TITLE "16:cjc029_6556"
    INDEX 01 00:35:47
  TRACK 41 AUDIO
    TITLE "0:"
    INDEX 01 00:36:58
  TRACK 42 AUDIO
    TITLE "17:cjc029_6557"
    INDEX 01 00:37:42
  TRACK 43 AUDIO
    TITLE "0:"
    INDEX 01 00:39:66
  TRACK 44 AUDIO
    TITLE "16:cjc029_6558"
    INDEX 01 00:39:74
  TRACK 45 AUDIO
    TITLE "0:"
    INDEX 01 00:41:16
  TRACK 46 AUDIO
    TITLE "17:cjc029_6559"
    INDEX 01 00:42:02
  TRACK 47 AUDIO
    TITLE "0:"
    INDEX 01 00:43:19
  TRACK 48 AUDIO
    TITLE "16:cjc029_6560"
    INDEX 01 00:43:23
  TRACK 49 AUDIO
    TITLE "0:"
    INDEX 01 00:44:38
  TRACK 50 AUDIO
    TITLE "17:cjc029_6561"
    INDEX 01 00:45:22
  TRACK 51 AUDIO
    TITLE "0:"
    INDEX 01 00:46:33
  TRACK 52 AUDIO
    TITLE "16:cjc029_6562"
    INDEX 01 00:46:41
  TRACK 53 AUDIO
    TITLE "0:"
    INDEX 01 00:47:58
  TRACK 54 AUDIO
    TITLE "17:cjc029_6563"
    INDEX 01 00:48:44
  TRACK 55 AUDIO
    TITLE "0:"
    INDEX 01 00:49:51
  TRACK 56 AUDIO
    TITLE "16:cjc029_6564"
    INDEX 01 00:49:57
  TRACK 57 AUDIO
    TITLE "0:"
    INDEX 01 00:51:05
  TRACK 58 AUDIO
    TITLE "17:cjc029_6565"
    INDEX 01 00:51:63
  TRACK 59 AUDIO
    TITLE "0:"
    INDEX 01 00:52:53
  TRACK 60 AUDIO
    TITLE "16:cjc029_6566"
    INDEX 01 00:52:57
  TRACK 61 AUDIO
    TITLE "0:"
    INDEX 01 00:54:13
  TRACK 62 AUDIO
    TITLE "17:cjc029_6567"
    INDEX 01 00:54:74
  TRACK 63 AUDIO
    TITLE "0:"
    INDEX 01 00:55:73
  TRACK 64 AUDIO
    TITLE "16:cjc029_6568"
    INDEX 01 00:56:06
  TRACK 65 AUDIO
    TITLE "0:"
    INDEX 01 00:57:23
